<svg xmlns="http://www.w3.org/2000/svg" viewBox="0 0 800 700">
  <defs>
    <linearGradient id="bg1" x1="0" x2="1" y1="0" y2="1">
      <stop offset="0%" stop-color="#020c18"/>
      <stop offset="100%" stop-color="#0d1f2d"/>
    </linearGradient>
    <linearGradient id="fishBody" x1="0" x2="1">
      <stop offset="0%" stop-color="#ff9d00"/>
      <stop offset="55%" stop-color="#ff7b00"/>
      <stop offset="100%" stop-color="#ffba40"/>
    </linearGradient>
  </defs>
  <rect width="800" height="700" fill="url(#bg1)"/>
  <ellipse cx="390" cy="490" rx="210" ry="55" fill="#0a1622" opacity="0.5"/>
  <g transform="translate(130 120)">
    <path d="M170 160 C260 90, 420 100, 530 180 C470 250, 370 310, 180 300 C120 260, 110 200, 170 160Z" fill="url(#fishBody)"/>
    <path d="M120 190 L20 240 L120 290 Z" fill="#ff8c1d"/>
    <circle cx="390" cy="195" r="18" fill="white"/>
    <circle cx="394" cy="200" r="8" fill="#1a1a1a"/>
    <path d="M530 180 L640 150 L610 215 Z" fill="#ff8c1d"/>
    <path d="M180 160 L150 90 L220 140 Z" fill="#ffba40"/>
    <path d="M180 300 L150 370 L220 325 Z" fill="#ffba40"/>
    <path d="M280 245 L260 310 L330 260 Z" fill="#ffba40"/>
    <path d="M420 248 L450 320 L370 275 Z" fill="#f9d45e" opacity="0.8"/>
    <path d="M260 160 L240 110 L310 150 Z" fill="#f5f1e8" opacity="0.7"/>
    <path d="M313 118 L340 70 L368 118 Z" fill="#fcd455" opacity="0.8"/>
  </g>
</svg>
